<svg xmlns="http://www.w3.org/2000/svg" viewBox="0 0 750 500"><g id="freepik--background-simple--inject-139"><path d="M570.49,70.87c-151-49-227-13-275,33s-64,76-119,82-106,16-132,83,7,120,57,153l.55.35,522.7-9.46c40.38-9.83,80.71-20.85,86.75-114.89C711.49,297.87,721.49,119.87,570.49,70.87Z" style="fill:#F18D11"></path><path d="M570.49,70.87c-151-49-227-13-275,33s-64,76-119,82-106,16-132,83,7,120,57,153l.55.35,522.7-9.46c40.38-9.83,80.71-20.85,86.75-114.89C711.49,297.87,721.49,119.87,570.49,70.87Z" style="fill:#fff;opacity:0.7000000000000001"></path></g><g id="freepik--Floor--inject-139"><line x1="633.56" y1="444.51" x2="706.85" y2="444.51" style="fill:none;stroke:#263238;stroke-linecap:round;stroke-linejoin:round"></line><line x1="71.56" y1="444.51" x2="115.64" y2="444.51" style="fill:none;stroke:#263238;stroke-linecap:round;stroke-linejoin:round"></line></g><g id="freepik--Bricks--inject-139"><rect x="188.41" y="222.68" width="50.34" height="20.38" style="opacity:0.2"></rect><rect x="362.39" y="166.68" width="50.34" height="20.38" style="opacity:0.2"></rect><rect x="518.39" y="166.68" width="50.34" height="20.38" style="opacity:0.2"></rect><rect x="608.39" y="204.68" width="50.34" height="20.38" style="opacity:0.2"></rect><rect x="334.82" y="194.84" width="50.34" height="20.38" style="opacity:0.1"></rect><rect x="247.46" y="166.68" width="50.34" height="20.38" style="opacity:0.2"></rect><rect x="219.89" y="194.84" width="50.34" height="20.38" style="opacity:0.1"></rect><rect x="277.43" y="194.84" width="50.34" height="20.38" style="opacity:0.1"></rect><rect x="129.8" y="241.49" width="50.34" height="20.38" style="opacity:0.2"></rect><rect x="104.97" y="194.84" width="50.34" height="20.38" style="opacity:0.1"></rect><rect x="162.51" y="194.84" width="50.34" height="20.38" style="opacity:0.1"></rect><rect x="362.39" y="51.68" width="50.34" height="20.38" style="opacity:0.2"></rect><rect x="334.82" y="79.84" width="50.34" height="20.38" style="opacity:0.1"></rect><rect x="615.39" y="51.68" width="50.34" height="20.38" style="opacity:0.2"></rect><rect x="587.82" y="79.84" width="50.34" height="20.38" style="opacity:0.1"></rect><rect x="261.46" y="51.68" width="50.34" height="20.38" style="opacity:0.2"></rect><rect x="277.43" y="136.49" width="50.34" height="20.38" style="opacity:0.1"></rect><rect x="420.8" y="270.68" width="50.34" height="20.38" style="opacity:0.2"></rect><rect x="420.8" y="325.68" width="50.34" height="20.38" style="opacity:0.2"></rect><rect x="188.41" y="326.68" width="50.34" height="20.38" style="opacity:0.2"></rect><rect x="507.27" y="298.84" width="50.34" height="20.38" style="opacity:0.1"></rect><rect x="479.8" y="325.49" width="50.34" height="20.38" style="opacity:0.1"></rect><rect x="652.83" y="298.84" width="50.34" height="20.38" style="opacity:0.1"></rect><rect x="625.35" y="325.49" width="50.34" height="20.38" style="opacity:0.1"></rect><rect x="362.39" y="270.68" width="50.34" height="20.38" style="opacity:0.2"></rect><rect x="392.35" y="298.84" width="50.34" height="20.38" style="opacity:0.1"></rect><rect x="368.35" y="356.84" width="50.34" height="20.38" style="opacity:0.1"></rect><rect x="440.35" y="383.84" width="50.34" height="20.38" style="opacity:0.1"></rect><rect x="250.35" y="383.84" width="50.34" height="20.38" style="opacity:0.1"></rect><rect x="106.8" y="383.84" width="50.34" height="20.38" style="opacity:0.1"></rect><rect x="289.82" y="229.84" width="50.34" height="20.38" style="opacity:0.1"></rect><rect x="347.35" y="229.84" width="50.34" height="20.38" style="opacity:0.1"></rect><rect x="507.35" y="229.84" width="50.34" height="20.38" style="opacity:0.1"></rect><rect x="247.46" y="270.68" width="50.34" height="20.38" style="opacity:0.2"></rect><rect x="302.89" y="328.84" width="50.34" height="20.38" style="opacity:0.1"></rect><rect x="132.54" y="270.68" width="50.34" height="20.38" style="opacity:0.2"></rect><rect x="129.8" y="345.49" width="50.34" height="20.38" style="opacity:0.2"></rect><rect x="104.97" y="298.84" width="50.34" height="20.38" style="opacity:0.1"></rect><rect x="162.51" y="298.84" width="50.34" height="20.38" style="opacity:0.1"></rect></g><g id="freepik--Plant--inject-139"><line x1="667.34" y1="273.77" x2="681.52" y2="409.73" style="fill:none;stroke:#263238;stroke-miterlimit:10;stroke-width:2px"></line><line x1="679.24" y1="383.71" x2="672.81" y2="376.92" style="fill:none;stroke:#263238;stroke-miterlimit:10;stroke-width:2px"></line><path d="M674.76,379a7.29,7.29,0,0,0-2.56-5.45c-1.65-1.48-10.34-5.13-11.17-2.07C660.14,374.76,669,381.29,674.76,379Z" style="fill:#F18D11;stroke:#263238;stroke-miterlimit:10"></path><line x1="674.76" y1="378.95" x2="666.49" y2="373.8" style="fill:none;stroke:#263238;stroke-miterlimit:10;stroke-width:0.5px"></line><line x1="680.85" y1="399.17" x2="674.42" y2="392.38" style="fill:none;stroke:#263238;stroke-miterlimit:10;stroke-width:2px"></line><path d="M676.37,394.42a7.26,7.26,0,0,0-2.56-5.46c-1.65-1.47-10.34-5.13-11.16-2.07C661.75,390.22,670.64,396.76,676.37,394.42Z" style="fill:#F18D11;stroke:#263238;stroke-miterlimit:10"></path><line x1="676.37" y1="394.42" x2="668.1" y2="389.26" style="fill:none;stroke:#263238;stroke-miterlimit:10;stroke-width:0.5px"></line><line x1="675.3" y1="345.98" x2="668.87" y2="339.18" style="fill:none;stroke:#263238;stroke-miterlimit:10;stroke-width:2px"></line><path d="M670.82,341.22a7.26,7.26,0,0,0-2.56-5.46c-1.65-1.47-10.34-5.13-11.16-2.07C656.2,337,665.09,343.56,670.82,341.22Z" style="fill:#F18D11;stroke:#263238;stroke-miterlimit:10"></path><line x1="670.82" y1="341.22" x2="662.55" y2="336.06" style="fill:none;stroke:#263238;stroke-miterlimit:10;stroke-width:0.5px"></line><line x1="676.91" y1="361.44" x2="670.48" y2="354.65" style="fill:none;stroke:#263238;stroke-miterlimit:10;stroke-width:2px"></line><path d="M672.44,356.68a7.29,7.29,0,0,0-2.56-5.45c-1.66-1.48-10.35-5.13-11.17-2.07C657.81,352.49,666.71,359,672.44,356.68Z" style="fill:#F18D11;stroke:#263238;stroke-miterlimit:10"></path><line x1="672.44" y1="356.68" x2="664.16" y2="351.53" style="fill:none;stroke:#263238;stroke-miterlimit:10;stroke-width:0.5px"></line><line x1="672.68" y1="320.86" x2="666.25" y2="314.07" style="fill:none;stroke:#263238;stroke-miterlimit:10;stroke-width:2px"></line><path d="M668.2,316.1a7.32,7.32,0,0,0-2.56-5.46c-1.65-1.47-10.34-5.13-11.17-2.07C653.58,311.9,662.47,318.44,668.2,316.1Z" style="fill:#F18D11;stroke:#263238;stroke-miterlimit:10"></path><line x1="668.2" y1="316.1" x2="659.93" y2="310.95" style="fill:none;stroke:#263238;stroke-miterlimit:10;stroke-width:0.5px"></line><line x1="670.05" y1="295.63" x2="663.61" y2="288.84" style="fill:none;stroke:#263238;stroke-miterlimit:10;stroke-width:2px"></line><path d="M665.57,290.87a7.29,7.29,0,0,0-2.56-5.45c-1.65-1.48-10.34-5.13-11.17-2.07C650.94,286.68,659.84,293.21,665.57,290.87Z" style="fill:#F18D11;stroke:#263238;stroke-miterlimit:10"></path><line x1="665.57" y1="290.87" x2="657.29" y2="285.72" style="fill:none;stroke:#263238;stroke-miterlimit:10;stroke-width:0.5px"></line><line x1="678.16" y1="374.56" x2="683.05" y2="366.59" style="fill:none;stroke:#263238;stroke-miterlimit:10;stroke-width:2px"></line><path d="M681.56,369a7.31,7.31,0,0,1,1.37-5.87c1.32-1.78,9.06-7.15,10.5-4.33C695,361.86,687.64,370.09,681.56,369Z" style="fill:#F18D11;stroke:#263238;stroke-miterlimit:10"></path><line x1="681.56" y1="368.98" x2="689" y2="361.86" style="fill:none;stroke:#263238;stroke-miterlimit:10;stroke-width:0.5px"></line><line x1="673.91" y1="333.87" x2="678.8" y2="325.89" style="fill:none;stroke:#263238;stroke-miterlimit:10;stroke-width:2px"></line><path d="M677.31,328.29a7.29,7.29,0,0,1,1.38-5.87c1.31-1.78,9.06-7.15,10.5-4.33C690.75,321.16,683.4,329.4,677.31,328.29Z" style="fill:#F18D11;stroke:#263238;stroke-miterlimit:10"></path><line x1="677.31" y1="328.29" x2="684.76" y2="321.17" style="fill:none;stroke:#263238;stroke-miterlimit:10;stroke-width:0.5px"></line><line x1="672.04" y1="315.99" x2="676.93" y2="308.01" style="fill:none;stroke:#263238;stroke-miterlimit:10;stroke-width:2px"></line><path d="M675.44,310.41a7.29,7.29,0,0,1,1.38-5.87c1.31-1.78,9.06-7.15,10.5-4.33C688.88,303.28,681.53,311.51,675.44,310.41Z" style="fill:#F18D11;stroke:#263238;stroke-miterlimit:10"></path><line x1="675.44" y1="310.41" x2="682.89" y2="303.29" style="fill:none;stroke:#263238;stroke-miterlimit:10;stroke-width:0.5px"></line><line x1="669.31" y1="289.77" x2="674.2" y2="281.8" style="fill:none;stroke:#263238;stroke-miterlimit:10;stroke-width:2px"></line><path d="M672.71,284.19a7.29,7.29,0,0,1,1.38-5.87c1.31-1.78,9-7.15,10.49-4.33C686.15,277.07,678.8,285.3,672.71,284.19Z" style="fill:#F18D11;stroke:#263238;stroke-miterlimit:10"></path><line x1="672.71" y1="284.19" x2="680.16" y2="277.07" style="fill:none;stroke:#263238;stroke-miterlimit:10;stroke-width:0.5px"></line><path d="M667.22,273a7.31,7.31,0,0,1,1.37-5.87c1.32-1.78,9.06-7.15,10.5-4.33C680.66,265.89,673.3,274.12,667.22,273Z" style="fill:#F18D11;stroke:#263238;stroke-miterlimit:10"></path><line x1="667.22" y1="273.01" x2="674.67" y2="265.89" style="fill:none;stroke:#263238;stroke-miterlimit:10;stroke-width:0.5px"></line><path d="M667.65,273.32a7.29,7.29,0,0,1-5.69-2c-1.64-1.49-6.17-9.76-3.21-10.89C662,259.2,669.39,267.38,667.65,273.32Z" style="fill:#F18D11;stroke:#263238;stroke-miterlimit:10"></path><line x1="667.65" y1="273.32" x2="661.35" y2="265.16" style="fill:none;stroke:#263238;stroke-miterlimit:10;stroke-width:0.5px"></line><line x1="704.76" y1="292.49" x2="690.65" y2="428.46" style="fill:none;stroke:#263238;stroke-miterlimit:10;stroke-width:2px"></line><line x1="693.77" y1="402.53" x2="688.87" y2="394.56" style="fill:none;stroke:#263238;stroke-miterlimit:10;stroke-width:2px"></line><path d="M690.37,397a7.27,7.27,0,0,0-1.38-5.86c-1.32-1.79-9.07-7.15-10.5-4.33C676.92,389.83,684.28,398.06,690.37,397Z" style="fill:#F18D11;stroke:#263238;stroke-miterlimit:10"></path><line x1="690.37" y1="396.95" x2="683.33" y2="390.2" style="fill:none;stroke:#263238;stroke-miterlimit:10;stroke-width:0.5px"></line><line x1="697.69" y1="364.8" x2="692.79" y2="356.82" style="fill:none;stroke:#263238;stroke-miterlimit:10;stroke-width:2px"></line><path d="M694.28,359.22a7.29,7.29,0,0,0-1.38-5.87c-1.31-1.78-9.06-7.15-10.5-4.32C680.84,352.1,688.2,360.33,694.28,359.22Z" style="fill:#F18D11;stroke:#263238;stroke-miterlimit:10"></path><line x1="694.28" y1="359.22" x2="687.25" y2="352.47" style="fill:none;stroke:#263238;stroke-miterlimit:10;stroke-width:0.5px"></line><line x1="696.08" y1="380.26" x2="691.19" y2="372.29" style="fill:none;stroke:#263238;stroke-miterlimit:10;stroke-width:2px"></line><path d="M692.68,374.68a7.29,7.29,0,0,0-1.38-5.87c-1.31-1.78-9.07-7.14-10.5-4.32C679.23,367.56,686.59,375.79,692.68,374.68Z" style="fill:#F18D11;stroke:#263238;stroke-miterlimit:10"></path><line x1="692.68" y1="374.68" x2="685.65" y2="367.93" style="fill:none;stroke:#263238;stroke-miterlimit:10;stroke-width:0.5px"></line><line x1="700.29" y1="339.68" x2="695.4" y2="331.7" style="fill:none;stroke:#263238;stroke-miterlimit:10;stroke-width:2px"></line><path d="M696.89,334.1a7.29,7.29,0,0,0-1.38-5.87c-1.31-1.78-9.06-7.15-10.5-4.32C683.45,327,690.8,335.21,696.89,334.1Z" style="fill:#F18D11;stroke:#263238;stroke-miterlimit:10"></path><line x1="696.89" y1="334.1" x2="689.86" y2="327.35" style="fill:none;stroke:#263238;stroke-miterlimit:10;stroke-width:0.5px"></line><line x1="702.91" y1="314.45" x2="698.01" y2="306.47" style="fill:none;stroke:#263238;stroke-miterlimit:10;stroke-width:2px"></line><path d="M699.51,308.87a7.29,7.29,0,0,0-1.38-5.87c-1.32-1.78-9.07-7.15-10.5-4.32C686.06,301.75,693.42,310,699.51,308.87Z" style="fill:#F18D11;stroke:#263238;stroke-miterlimit:10"></path><line x1="699.51" y1="308.87" x2="692.47" y2="302.12" style="fill:none;stroke:#263238;stroke-miterlimit:10;stroke-width:0.5px"></line><line x1="694.6" y1="393.36" x2="701.03" y2="386.56" style="fill:none;stroke:#263238;stroke-miterlimit:10;stroke-width:2px"></line><path d="M699.07,388.59a7.29,7.29,0,0,1,2.56-5.45c1.65-1.48,10.34-5.14,11.16-2.08C713.69,384.39,704.8,390.93,699.07,388.59Z" style="fill:#F18D11;stroke:#263238;stroke-miterlimit:10"></path><line x1="699.07" y1="388.59" x2="707.83" y2="383.16" style="fill:none;stroke:#263238;stroke-miterlimit:10;stroke-width:0.5px"></line><line x1="698.82" y1="352.66" x2="705.25" y2="345.86" style="fill:none;stroke:#263238;stroke-miterlimit:10;stroke-width:2px"></line><path d="M703.29,347.9a7.31,7.31,0,0,1,2.56-5.46c1.65-1.47,10.34-5.13,11.17-2.07C717.91,343.69,709,350.24,703.29,347.9Z" style="fill:#F18D11;stroke:#263238;stroke-miterlimit:10"></path><line x1="703.29" y1="347.9" x2="712.05" y2="342.47" style="fill:none;stroke:#263238;stroke-miterlimit:10;stroke-width:0.5px"></line><line x1="700.67" y1="334.78" x2="707.1" y2="327.98" style="fill:none;stroke:#263238;stroke-miterlimit:10;stroke-width:2px"></line><path d="M705.15,330a7.26,7.26,0,0,1,2.56-5.46c1.65-1.48,10.34-5.14,11.16-2.08C719.77,325.81,710.88,332.35,705.15,330Z" style="fill:#F18D11;stroke:#263238;stroke-miterlimit:10"></path><line x1="705.15" y1="330.02" x2="713.91" y2="324.58" style="fill:none;stroke:#263238;stroke-miterlimit:10;stroke-width:0.5px"></line><line x1="703.4" y1="308.56" x2="709.82" y2="301.76" style="fill:none;stroke:#263238;stroke-miterlimit:10;stroke-width:2px"></line><path d="M707.87,303.8a7.26,7.26,0,0,1,2.56-5.46c1.65-1.47,10.34-5.14,11.16-2.08C722.49,299.59,713.6,306.14,707.87,303.8Z" style="fill:#F18D11;stroke:#263238;stroke-miterlimit:10"></path><line x1="707.87" y1="303.8" x2="716.63" y2="298.37" style="fill:none;stroke:#263238;stroke-miterlimit:10;stroke-width:0.5px"></line><path d="M704.8,291.73a7.26,7.26,0,0,1,2.56-5.46c1.65-1.48,10.33-5.14,11.16-2.08C719.42,287.52,710.53,294.06,704.8,291.73Z" style="fill:#F18D11;stroke:#263238;stroke-miterlimit:10"></path><line x1="704.8" y1="291.73" x2="713.55" y2="286.29" style="fill:none;stroke:#263238;stroke-miterlimit:10;stroke-width:0.5px"></line><path d="M705.16,292.12A7.28,7.28,0,0,1,700,289c-1.3-1.79-4-10.82-.9-11.32C702.51,277.14,708.08,286.66,705.16,292.12Z" style="fill:#F18D11;stroke:#263238;stroke-miterlimit:10"></path><line x1="705.16" y1="292.12" x2="700.67" y2="282.84" style="fill:none;stroke:#263238;stroke-miterlimit:10;stroke-width:0.5px"></line><line x1="688.59" y1="237.12" x2="688.59" y2="409.07" style="fill:none;stroke:#263238;stroke-miterlimit:10;stroke-width:2px"></line><line x1="688.73" y1="383.22" x2="683.04" y2="375.79" style="fill:none;stroke:#263238;stroke-miterlimit:10;stroke-width:2px"></line><path d="M684.77,378a7.3,7.3,0,0,0-2-5.69c-1.49-1.64-9.75-6.18-10.89-3.22C670.66,372.33,678.83,379.75,684.77,378Z" style="fill:#F18D11;stroke:#263238;stroke-miterlimit:10"></path><line x1="684.77" y1="378.02" x2="677.08" y2="372.03" style="fill:none;stroke:#263238;stroke-miterlimit:10;stroke-width:0.5px"></line><line x1="688.73" y1="350.9" x2="683.04" y2="343.48" style="fill:none;stroke:#263238;stroke-miterlimit:10;stroke-width:2px"></line><path d="M684.77,345.7a7.3,7.3,0,0,0-2-5.69c-1.49-1.64-9.75-6.17-10.89-3.22C670.66,340,678.83,347.44,684.77,345.7Z" style="fill:#F18D11;stroke:#263238;stroke-miterlimit:10"></path><line x1="684.77" y1="345.7" x2="677.08" y2="339.72" style="fill:none;stroke:#263238;stroke-miterlimit:10;stroke-width:0.5px"></line><line x1="688.73" y1="312.96" x2="683.04" y2="305.54" style="fill:none;stroke:#263238;stroke-miterlimit:10;stroke-width:2px"></line><path d="M684.77,307.77a7.33,7.33,0,0,0-2-5.7c-1.49-1.63-9.75-6.17-10.89-3.21C670.66,302.07,678.83,309.5,684.77,307.77Z" style="fill:#F18D11;stroke:#263238;stroke-miterlimit:10"></path><line x1="684.77" y1="307.77" x2="677.08" y2="301.78" style="fill:none;stroke:#263238;stroke-miterlimit:10;stroke-width:0.5px"></line><line x1="688.73" y1="287.71" x2="683.04" y2="280.28" style="fill:none;stroke:#263238;stroke-miterlimit:10;stroke-width:2px"></line><path d="M684.77,282.51a7.3,7.3,0,0,0-2-5.69c-1.49-1.64-9.75-6.18-10.89-3.22C670.66,276.82,678.83,284.24,684.77,282.51Z" style="fill:#F18D11;stroke:#263238;stroke-miterlimit:10"></path><line x1="684.77" y1="282.51" x2="677.08" y2="276.53" style="fill:none;stroke:#263238;stroke-miterlimit:10;stroke-width:0.5px"></line><line x1="688.73" y1="262.34" x2="683.04" y2="254.92" style="fill:none;stroke:#263238;stroke-miterlimit:10;stroke-width:2px"></line><path d="M684.77,257.15a7.33,7.33,0,0,0-2-5.7c-1.49-1.63-9.75-6.17-10.89-3.21C670.66,251.45,678.83,258.88,684.77,257.15Z" style="fill:#F18D11;stroke:#263238;stroke-miterlimit:10"></path><line x1="684.77" y1="257.15" x2="677.08" y2="251.16" style="fill:none;stroke:#263238;stroke-miterlimit:10;stroke-width:0.5px"></line><line x1="688.6" y1="393.08" x2="694.3" y2="385.66" style="fill:none;stroke:#263238;stroke-miterlimit:10;stroke-width:2px"></line><path d="M692.56,387.89a7.33,7.33,0,0,1,2-5.7c1.49-1.64,9.76-6.17,10.89-3.21C706.67,382.19,698.5,389.62,692.56,387.89Z" style="fill:#F18D11;stroke:#263238;stroke-miterlimit:10"></path><line x1="692.56" y1="387.89" x2="700.71" y2="381.58" style="fill:none;stroke:#263238;stroke-miterlimit:10;stroke-width:0.5px"></line><line x1="688.6" y1="341.69" x2="694.3" y2="334.27" style="fill:none;stroke:#263238;stroke-miterlimit:10;stroke-width:2px"></line><path d="M692.56,336.49a7.3,7.3,0,0,1,2-5.69c1.49-1.64,9.76-6.18,10.89-3.22C706.67,330.8,698.5,338.23,692.56,336.49Z" style="fill:#F18D11;stroke:#263238;stroke-miterlimit:10"></path><line x1="692.56" y1="336.49" x2="700.71" y2="330.18" style="fill:none;stroke:#263238;stroke-miterlimit:10;stroke-width:0.5px"></line><line x1="688.6" y1="316.33" x2="694.3" y2="308.9" style="fill:none;stroke:#263238;stroke-miterlimit:10;stroke-width:2px"></line><path d="M692.56,311.13a7.33,7.33,0,0,1,2-5.7c1.49-1.63,9.76-6.17,10.89-3.21C706.67,305.43,698.5,312.86,692.56,311.13Z" style="fill:#F18D11;stroke:#263238;stroke-miterlimit:10"></path><line x1="692.56" y1="311.13" x2="700.71" y2="304.82" style="fill:none;stroke:#263238;stroke-miterlimit:10;stroke-width:0.5px"></line><line x1="688.6" y1="282.8" x2="694.3" y2="275.37" style="fill:none;stroke:#263238;stroke-miterlimit:10;stroke-width:2px"></line><path d="M692.56,277.6a7.3,7.3,0,0,1,2-5.69c1.49-1.64,9.76-6.18,10.89-3.22C706.67,271.91,698.5,279.33,692.56,277.6Z" style="fill:#F18D11;stroke:#263238;stroke-miterlimit:10"></path><line x1="692.56" y1="277.6" x2="700.71" y2="271.29" style="fill:none;stroke:#263238;stroke-miterlimit:10;stroke-width:0.5px"></line><line x1="688.6" y1="256.44" x2="694.3" y2="249.02" style="fill:none;stroke:#263238;stroke-miterlimit:10;stroke-width:2px"></line><path d="M692.56,251.24a7.3,7.3,0,0,1,2-5.69c1.49-1.64,9.76-6.18,10.89-3.22C706.67,245.55,698.5,253,692.56,251.24Z" style="fill:#F18D11;stroke:#263238;stroke-miterlimit:10"></path><line x1="692.56" y1="251.24" x2="700.71" y2="244.93" style="fill:none;stroke:#263238;stroke-miterlimit:10;stroke-width:0.5px"></line><path d="M688.26,239.55a7.3,7.3,0,0,1,2-5.69c1.49-1.64,9.75-6.18,10.89-3.22C702.37,233.86,694.2,241.29,688.26,239.55Z" style="fill:#F18D11;stroke:#263238;stroke-miterlimit:10"></path><line x1="688.26" y1="239.55" x2="696.41" y2="233.24" style="fill:none;stroke:#263238;stroke-miterlimit:10;stroke-width:0.5px"></line><path d="M688.66,239.9a7.28,7.28,0,0,1-5.45-2.56c-1.48-1.66-5.12-10.35-2.06-11.17C684.48,225.28,691,234.18,688.66,239.9Z" style="fill:#F18D11;stroke:#263238;stroke-miterlimit:10"></path><line x1="688.66" y1="239.9" x2="683.24" y2="231.14" style="fill:none;stroke:#263238;stroke-miterlimit:10;stroke-width:0.5px"></line><polygon points="695.66 453.67 677.46 453.67 675.18 407.68 697.94 407.68 695.66 453.67" style="fill:#263238;stroke:#263238;stroke-miterlimit:10"></polygon></g><g id="freepik--Lamps--inject-139"><circle cx="124.43" cy="79.38" r="7.45" transform="translate(-19.86 48.31) rotate(-20.38)" style="fill:#fff;stroke:#263238;stroke-miterlimit:10"></circle><polygon points="157.64 80.88 90.64 80.88 114.09 52.88 134.19 52.88 157.64 80.88" style="fill:#263238"></polygon><rect x="119.72" y="47.47" width="8.84" height="8.84" style="fill:#263238"></rect><line x1="124.5" y1="49.13" x2="124.5" y2="23.55" style="fill:none;stroke:#263238;stroke-miterlimit:10"></line><circle cx="613.93" cy="79.38" r="7.45" transform="translate(21.7 259.59) rotate(-24.29)" style="fill:#fff;stroke:#263238;stroke-miterlimit:10"></circle><polygon points="647.14 80.88 580.14 80.88 603.59 52.88 623.69 52.88 647.14 80.88" style="fill:#263238"></polygon><rect x="609.22" y="47.47" width="8.84" height="8.84" style="fill:#263238"></rect><line x1="614" y1="49.13" x2="614" y2="23.55" style="fill:none;stroke:#263238;stroke-miterlimit:10"></line></g><g id="freepik--Board--inject-139"><rect x="216.72" y="103.1" width="254.7" height="155.93" style="fill:#263238;stroke:#263238;stroke-linecap:round;stroke-linejoin:round"></rect><rect x="225.19" y="110.1" width="237.75" height="141.94" style="fill:#fff;stroke:#263238;stroke-linecap:round;stroke-linejoin:round"></rect><rect x="326.92" y="199.25" width="14.45" height="16.46" style="fill:#263238"></rect><rect x="247.46" y="188.42" width="14.45" height="27.29" style="fill:#263238"></rect><rect x="267.32" y="177.16" width="14.45" height="38.55" style="fill:#F18D11"></rect><rect x="287.19" y="164.6" width="14.45" height="51.12" style="fill:#263238"></rect><rect x="307.05" y="194.49" width="14.45" height="21.23" style="fill:#F18D11"></rect><rect x="346.78" y="169.36" width="14.45" height="46.35" style="fill:#F18D11"></rect><rect x="366.64" y="161.13" width="14.45" height="54.58" style="fill:#263238"></rect><rect x="386.51" y="153.77" width="14.45" height="61.95" style="fill:#F18D11"></rect><rect x="406.37" y="176.29" width="14.45" height="39.42" style="fill:#263238"></rect><rect x="426.24" y="188.42" width="14.45" height="27.29" style="fill:#F18D11"></rect><line x1="309.4" y1="131.6" x2="378.74" y2="131.6" style="fill:none;stroke:#263238;stroke-linecap:round;stroke-linejoin:round"></line><line x1="247.48" y1="224.8" x2="261.12" y2="224.8" style="fill:none;stroke:#263238;stroke-linecap:round;stroke-linejoin:round"></line><line x1="267.42" y1="224.8" x2="281.06" y2="224.8" style="fill:none;stroke:#263238;stroke-linecap:round;stroke-linejoin:round"></line><line x1="287.37" y1="224.8" x2="301.01" y2="224.8" style="fill:none;stroke:#263238;stroke-linecap:round;stroke-linejoin:round"></line><line x1="307.31" y1="224.8" x2="320.95" y2="224.8" style="fill:none;stroke:#263238;stroke-linecap:round;stroke-linejoin:round"></line><line x1="327.25" y1="224.8" x2="340.89" y2="224.8" style="fill:none;stroke:#263238;stroke-linecap:round;stroke-linejoin:round"></line><line x1="347.2" y1="224.8" x2="360.84" y2="224.8" style="fill:none;stroke:#263238;stroke-linecap:round;stroke-linejoin:round"></line><line x1="367.14" y1="224.8" x2="380.78" y2="224.8" style="fill:none;stroke:#263238;stroke-linecap:round;stroke-linejoin:round"></line><line x1="387.09" y1="224.8" x2="400.73" y2="224.8" style="fill:none;stroke:#263238;stroke-linecap:round;stroke-linejoin:round"></line><line x1="407.03" y1="224.8" x2="420.67" y2="224.8" style="fill:none;stroke:#263238;stroke-linecap:round;stroke-linejoin:round"></line><line x1="426.97" y1="224.8" x2="440.61" y2="224.8" style="fill:none;stroke:#263238;stroke-linecap:round;stroke-linejoin:round"></line><line x1="238.39" y1="215.71" x2="454.91" y2="215.71" style="fill:none;stroke:#263238;stroke-linecap:round;stroke-linejoin:round"></line><line x1="238.39" y1="210.03" x2="242.93" y2="210.03" style="fill:none;stroke:#263238;stroke-linecap:round;stroke-linejoin:round"></line><line x1="238.39" y1="204.13" x2="242.93" y2="204.13" style="fill:none;stroke:#263238;stroke-linecap:round;stroke-linejoin:round"></line><line x1="238.39" y1="198.24" x2="242.93" y2="198.24" style="fill:none;stroke:#263238;stroke-linecap:round;stroke-linejoin:round"></line><line x1="238.39" y1="192.34" x2="242.93" y2="192.34" style="fill:none;stroke:#263238;stroke-linecap:round;stroke-linejoin:round"></line><line x1="238.39" y1="186.45" x2="242.93" y2="186.45" style="fill:none;stroke:#263238;stroke-linecap:round;stroke-linejoin:round"></line><line x1="238.39" y1="180.55" x2="242.93" y2="180.55" style="fill:none;stroke:#263238;stroke-linecap:round;stroke-linejoin:round"></line><line x1="238.39" y1="174.66" x2="242.93" y2="174.66" style="fill:none;stroke:#263238;stroke-linecap:round;stroke-linejoin:round"></line><line x1="238.39" y1="168.76" x2="242.93" y2="168.76" style="fill:none;stroke:#263238;stroke-linecap:round;stroke-linejoin:round"></line><line x1="238.39" y1="162.87" x2="242.93" y2="162.87" style="fill:none;stroke:#263238;stroke-linecap:round;stroke-linejoin:round"></line><line x1="238.39" y1="156.98" x2="242.93" y2="156.98" style="fill:none;stroke:#263238;stroke-linecap:round;stroke-linejoin:round"></line><line x1="238.39" y1="151.08" x2="242.93" y2="151.08" style="fill:none;stroke:#263238;stroke-linecap:round;stroke-linejoin:round"></line><line x1="238.39" y1="145.19" x2="242.93" y2="145.19" style="fill:none;stroke:#263238;stroke-linecap:round;stroke-linejoin:round"></line><path d="M300.41,146.41H290.05a1.72,1.72,0,0,0-1.72,1.73v7.13a1.73,1.73,0,0,0,1.72,1.73h3l2,4.16,2-4.13,3.37,0a1.74,1.74,0,0,0,1.73-1.73v-7.13A1.73,1.73,0,0,0,300.41,146.41Z" style="fill:#c7c7c7"></path><path d="M279.54,160.11H269.18a1.72,1.72,0,0,0-1.72,1.72V169a1.72,1.72,0,0,0,1.72,1.72h3l2,4.17,2-4.13,3.38,0a1.72,1.72,0,0,0,1.72-1.72v-7.14A1.72,1.72,0,0,0,279.54,160.11Z" style="fill:#c7c7c7"></path><path d="M259.54,169H249.18a1.73,1.73,0,0,0-1.73,1.73v7.13a1.74,1.74,0,0,0,1.73,1.73h3l2,4.17,2-4.14,3.38,0a1.73,1.73,0,0,0,1.72-1.73v-7.13A1.72,1.72,0,0,0,259.54,169Z" style="fill:#c7c7c7"></path><path d="M319.76,177.72H309.41a1.72,1.72,0,0,0-1.73,1.72v7.14a1.72,1.72,0,0,0,1.73,1.72h3l2,4.17,2-4.13,3.37,0a1.73,1.73,0,0,0,1.73-1.72v-7.14A1.73,1.73,0,0,0,319.76,177.72Z" style="fill:#c7c7c7"></path><path d="M339.76,181.41H329.41a1.73,1.73,0,0,0-1.73,1.73v7.13a1.72,1.72,0,0,0,1.73,1.73h3l2,4.17,2-4.13,3.37,0a1.72,1.72,0,0,0,1.73-1.73v-7.13A1.73,1.73,0,0,0,339.76,181.41Z" style="fill:#c7c7c7"></path><path d="M359.77,152.5H349.41a1.73,1.73,0,0,0-1.73,1.72v7.14a1.73,1.73,0,0,0,1.73,1.72h3l2,4.17,1.95-4.13,3.38,0a1.72,1.72,0,0,0,1.72-1.72v-7.14A1.72,1.72,0,0,0,359.77,152.5Z" style="fill:#c7c7c7"></path><path d="M379.33,143.58H369a1.74,1.74,0,0,0-1.73,1.73v7.13a1.73,1.73,0,0,0,1.73,1.73h3l2,4.17,2-4.13,3.37,0a1.72,1.72,0,0,0,1.73-1.73v-7.13A1.73,1.73,0,0,0,379.33,143.58Z" style="fill:#c7c7c7"></path><path d="M399.12,136.63H388.76a1.72,1.72,0,0,0-1.72,1.72v7.14a1.72,1.72,0,0,0,1.72,1.72h3l2,4.17,2-4.13,3.37,0a1.73,1.73,0,0,0,1.73-1.72v-7.14A1.73,1.73,0,0,0,399.12,136.63Z" style="fill:#c7c7c7"></path><path d="M418.47,159.24H408.11a1.72,1.72,0,0,0-1.72,1.72v7.14a1.72,1.72,0,0,0,1.72,1.72h3l2,4.17,2-4.13,3.37,0a1.73,1.73,0,0,0,1.73-1.72V161A1.73,1.73,0,0,0,418.47,159.24Z" style="fill:#c7c7c7"></path><path d="M439.12,171H428.77A1.73,1.73,0,0,0,427,172.7v7.14a1.73,1.73,0,0,0,1.73,1.72h3l2,4.17,2-4.13,3.37,0a1.72,1.72,0,0,0,1.73-1.72V172.7A1.72,1.72,0,0,0,439.12,171Z" style="fill:#c7c7c7"></path></g><g id="freepik--character-2--inject-139"><path d="M374.36,218l-5.1-6.08s-1.95-5.83-3.41-7.77-5.1-2.19-9.47-4.86-6.08-2.43-5.35.73,5.83,6.56,5.83,6.56-9.71-.24-10.44-.49-7.29-2.18-8.75-3.16-4.37,0-2.92,3.16,6.08,10,9.48,12.4,2.67,2.91,9.23,3.88,8.26.73,8.26.73l3.89,3.65Z" style="fill:#fff;stroke:#263238;stroke-linecap:round;stroke-linejoin:round"></path><path d="M342.53,216.76s-4.13-14.09-1.7-12.14,7.29,10.2,7.29,10.2,11.42-1.7,14.58,1.7" style="fill:#fff;stroke:#263238;stroke-linecap:round;stroke-linejoin:round"></path><polygon points="381.16 223.32 372.42 216.52 363.43 226.97 373.14 233.29 381.16 223.32" style="fill:#fff;stroke:#263238;stroke-linecap:round;stroke-linejoin:round"></polygon><path d="M430.61,285.09l-1.74,11s-6,17.25-5.75,20.5,7.37,99,7.37,99h78.72s-3.12-102.52-3.37-105-2.46-20.44-2.46-20.44-45.78.2-47.27-.05-26.24-7-26.24-7Z" style="fill:#263238;stroke:#263238;stroke-linecap:round;stroke-linejoin:round"></path><line x1="452.11" y1="332.07" x2="469.85" y2="337.07" style="fill:none;stroke:#696969;stroke-linecap:round;stroke-linejoin:round"></line><line x1="463.1" y1="335.57" x2="466.16" y2="413.04" style="fill:none;stroke:#696969;stroke-linecap:round;stroke-linejoin:round"></line><path d="M467.85,301.58c18.4-.67,26.52-1.55,35.95-8.05l-.42-3.39s-45.78.2-47.27-.05-26.24-7-26.24-7l.74,2-1.26,8C435.24,295.81,450.87,302.2,467.85,301.58Z" style="fill:#878787;stroke:#263238;stroke-linecap:round;stroke-linejoin:round"></path><polygon points="458.6 297.33 458.6 300.83 467.85 301.58 468.39 297.43 458.6 297.33" style="fill:#fff;stroke:#263238;stroke-linecap:round;stroke-linejoin:round"></polygon><path d="M457.94,181.53S423.68,191,422.71,192s-5.59,28.67-5.59,28.67l-9,14.34-25.75-13.61s-5.11,2.43-6.32,3.89-8,9-5.83,11.42,33,24.3,37.66,27.21,6.56,3.65,8.75,1.22,12.88-17.25,12.88-17.25L429,279.21s-3.16,1.22-2.43,4.13a12.14,12.14,0,0,0,2.19,4.62h2.91s11.91,10.45,36.69,9.47,33.05-4.86,35-7.29,2.19-2.42,1.7-4.37a38.26,38.26,0,0,1-.73-4.62l6.81-42.52L530.6,252s18.71,2.91,21.86.73,4.13-3.65,1.71-8-22.6-28.19-22.6-28.19-7.78-19.19-9-20.89-33.29-14.1-33.29-14.1Z" style="fill:#fff;stroke:#263238;stroke-linecap:round;stroke-linejoin:round"></path><path d="M408.13,235s3.35,4.4,3.59,8.11" style="fill:none;stroke:#263238;stroke-linecap:round;stroke-linejoin:round"></path><polyline points="429.52 247.87 429.52 217.74 427.57 207.77" style="fill:none;stroke:#263238;stroke-linecap:round;stroke-linejoin:round"></polyline><line x1="424.62" y1="210.62" x2="423.2" y2="207.29" style="fill:none;stroke:#263238;stroke-linecap:round;stroke-linejoin:round"></line><line x1="429.52" y1="222.11" x2="426.11" y2="214.12" style="fill:none;stroke:#263238;stroke-linecap:round;stroke-linejoin:round"></line><line x1="511.16" y1="238.63" x2="517.23" y2="209.72" style="fill:none;stroke:#263238;stroke-linecap:round;stroke-linejoin:round"></line><path d="M519.17,218.26c-2.25,3.4-4.63,7.32-5.34,9.68" style="fill:none;stroke:#263238;stroke-linecap:round;stroke-linejoin:round"></path><path d="M523.79,211.66s-1,1.38-2.42,3.38" style="fill:none;stroke:#263238;stroke-linecap:round;stroke-linejoin:round"></path><path d="M522.33,227.21s5.11-6.8,11.42-6.8" style="fill:none;stroke:#263238;stroke-linecap:round;stroke-linejoin:round"></path><path d="M489.72,275.93c5.4-7.29,13.16-17.95,15.61-22.23" style="fill:none;stroke:#263238;stroke-linecap:round;stroke-linejoin:round"></path><path d="M484.19,283.34s1.23-1.63,3.11-4.15" style="fill:none;stroke:#263238;stroke-linecap:round;stroke-linejoin:round"></path><line x1="502.41" y1="269.98" x2="493.66" y2="283.34" style="fill:none;stroke:#263238;stroke-linecap:round;stroke-linejoin:round"></line><path d="M465,174s-2.91.24-3.64,1-6.08,6.81-6.08,6.81.73,22.35,2,21.62,10.69-9.48,11.66-10.45S483,204.13,483.7,204.62s1.22,2.67,1.94.48,8-21.38,7.29-23.32-5.34-7.78-5.34-7.78S469.85,177.64,465,174Z" style="fill:#fff;stroke:#263238;stroke-linecap:round;stroke-linejoin:round"></path><path d="M459.65,126.86s-6.57,9-6.08,10.94-1,5.34-1,5.34-8.75,6.8-7.78,8.75a20.39,20.39,0,0,0,3.65,4.37s-.24,17,1.94,17,10.94.49,10.94.49,7.29,26.72,9.72,25.27,16.28-23.09,16.28-23.09l2.67-10.2s10-4.38,12.88-18.71-5.11-22.84-10.21-26.49-15.55-4.13-15.55-4.13,3.89-2.43,0-4.13-9.23.73-9.23.73-.25-6.32-5.83-2.91S449.68,120.06,459.65,126.86Z" style="fill:#fff;stroke:#263238;stroke-linecap:round;stroke-linejoin:round"></path><path d="M492.69,120.54c-5.1-3.64-15.55-4.13-15.55-4.13s3.89-2.43,0-4.13-9.23.73-9.23.73-.25-6.32-5.83-2.91-12.4,10-2.43,16.76c0,0,20.16,1.7,14.82,5.1s-7.78,3.65-4.13,6.08,6.8,7.77,6.8,7.77-2.67,5.35-1.46,6.32,2.67,1.22,3.65-.24,3.88-6.56,8-5.35,3.64,6.56.48,10a16.26,16.26,0,0,1-7.53,4.37s5.83,3.4,7.77,4.13a9.24,9.24,0,0,0,3.16.07c2.74-1.68,9.38-6.79,11.67-18.05C505.81,132.69,497.79,124.19,492.69,120.54Z" style="fill:#263238;stroke:#263238;stroke-linecap:round;stroke-linejoin:round"></path><path d="M452.36,159.42s4.61-.24,6.8-2.67c0,0-.49,4.86-2.19,5.1S452.36,159.42,452.36,159.42Z" style="fill:none;stroke:#263238;stroke-linecap:round;stroke-linejoin:round"></path><path d="M459.4,143.75c0,1-.43,1.82-1,1.82s-1-.81-1-1.82.43-1.82,1-1.82S459.4,142.74,459.4,143.75Z" style="fill:#263238"></path><path d="M456,140.23s3.89-2.43,5.83.72" style="fill:none;stroke:#263238;stroke-linecap:round;stroke-linejoin:round"></path><polygon points="461.35 173.76 469.61 173.51 474.47 168.41 464.99 184.69 461.35 173.76" style="fill:#263238;stroke:#263238;stroke-linecap:round;stroke-linejoin:round"></polygon><path d="M509,235.47l-7.53-3.88a14.13,14.13,0,0,0-3.89-3.65c-1.94-1-3.64,0-9.48-1.7s-8-1.46-7,1.22,7,2.91,7,2.91l2.43,1.46L474.22,235l-8.3,3.59a1,1,0,0,0-.58,1h0a1,1,0,0,0,1.1.82l7.3-1.07,8.37-.6-13.5,6.17a1.46,1.46,0,0,0-.75,1.56h0a1.46,1.46,0,0,0,1.87,1.15L483,244.5l-8.6,6.65a1.31,1.31,0,0,0-.48,1.61h0a1.3,1.3,0,0,0,1.71.67l8.43-3.64-4.14,5.38a.81.81,0,0,0,0,1h0a.82.82,0,0,0,1.1.16c1.91-1.35,7.63-5.36,8.24-5.56s6.56-2.67,7.53-2.91,4.62-1.46,4.62-1.46l7.77,2.67Z" style="fill:none;stroke:#263238;stroke-linecap:round;stroke-linejoin:round"></path><path d="M516.26,236.69,509,235.47,507.51,251l8.26,1.71S516.75,239.6,516.26,236.69Z" style="fill:#fff;stroke:#263238;stroke-linecap:round;stroke-linejoin:round"></path><path d="M549.79,238.63s-32.32-4.86-33.53-1.94-3.4,17.49-.24,18.71,33,12.88,35.47,10.93,7.29-7,7.29-12.63S549.79,238.63,549.79,238.63Z" style="fill:#fff;stroke:#263238;stroke-linecap:round;stroke-linejoin:round"></path></g><g id="freepik--Table--inject-139"><polyline points="70.17 472.84 257.88 376.91 509.21 376.91 693.77 472.84" style="fill:#fff;stroke:#263238;stroke-linecap:round;stroke-linejoin:round"></polyline></g><g id="freepik--Sheets--inject-139"><polygon points="376.94 401.61 345.71 421.58 391.28 426.19 417.39 405.71 376.94 401.61" style="fill:#fff;stroke:#263238;stroke-linecap:round;stroke-linejoin:round"></polygon><polygon points="402.03 408.78 368.24 432.33 412.78 436.94 441.97 413.9 402.03 408.78" style="fill:#fff;stroke:#263238;stroke-linecap:round;stroke-linejoin:round"></polygon><polygon points="331.88 402.13 319.59 431.31 363.63 432.85 370.8 403.15 331.88 402.13" style="fill:#fff;stroke:#263238;stroke-linecap:round;stroke-linejoin:round"></polygon></g><g id="freepik--device-2--inject-139"><polygon points="446.97 393.38 495.3 391.99 524.79 420.59 468.62 422.27 446.97 393.38" style="fill:#c7c7c7;stroke:#263238;stroke-linecap:round;stroke-linejoin:round"></polygon><polygon points="497.33 398.22 482.03 399.17 496.01 414.28 512.45 413.14 497.33 398.22" style="fill:#c7c7c7;stroke:#263238;stroke-linecap:round;stroke-linejoin:round"></polygon><polygon points="457.59 397.14 476.33 396.61 494.47 417.4 473.33 418.14 457.59 397.14" style="fill:#263238;stroke:#263238;stroke-linecap:round;stroke-linejoin:round"></polygon><polygon points="468.62 422.27 455.84 370.59 435.03 350.09 446.97 393.38 468.62 422.27" style="fill:#878787;stroke:#263238;stroke-linecap:round;stroke-linejoin:round"></polygon></g><g id="freepik--character-3--inject-139"><path d="M619.25,343.19,644.81,350a11.9,11.9,0,0,1,5.94,3.72h0a11.93,11.93,0,0,1,2.39,11.37l-22.28,74.22-32.52-16.58Z" style="fill:#263238;stroke:#263238;stroke-linecap:round;stroke-linejoin:round"></path><path d="M562.29,317.75S548,323,545.88,325.3s-8.08,42.2-8.08,42.2-6,2.08-6,3.65v1.56s-6.51,2.86-8.85,4.69-3.13,2.08,0,5.21,7.81,8.85,13.28,10.68,6.63,2.06,6.63,2.06L608.22,428s20.49-94.39,20.75-96.48-30.74-17.45-33.6-19S562.29,317.75,562.29,317.75Z" style="fill:#F18D11;stroke:#263238;stroke-linecap:round;stroke-linejoin:round"></path><path d="M564.11,316.19s-2.86,3.12-2.6,4.43,1,8.59,1,10.41V342l9.12-23.7-1.57-4.43Z" style="fill:#F18D11;stroke:#263238;stroke-linecap:round;stroke-linejoin:round"></path><path d="M597.19,305.51l-6.84-3.06L568,320.88a48.56,48.56,0,0,0-4.17,13.8c-1.3,8.34-3.38,33.86-3.38,33.86s10.15-21.62,11.46-24,1.56-12.24,1.56-12.24,12.5-4.17,16.41-11.46S597.19,305.51,597.19,305.51Z" style="fill:#fff;stroke:#263238;stroke-linecap:round;stroke-linejoin:round"></path><path d="M541.45,280.24s1,6.25,1.82,7.56,1.83,6.51,1.83,6.51-.52,7.29.78,9.63,8.33,15.37,11.72,15.89,8.86-1.82,8.86-1.82l.52,6.25s3.64,2.35,12.24-1.3,12.76-9.64,13.28-12-4.16-13.81-4.16-13.81V290.4a15.31,15.31,0,0,0,3.12-11.72c-1-7,.52-9.12-13.28-12.76S547.7,268,543.8,270.6,541.45,280.24,541.45,280.24Z" style="fill:#fff;stroke:#263238;stroke-linecap:round;stroke-linejoin:round"></path><path d="M573.23,279.46l2.08,1.82.78,5.73s2.61,1.83,3.39-.78-.52-7,2.6-8.59,6-2.09,6,3.38-2.87,14.33-2.87,14.33,2.61,3.13,3.13,1.82,4.16-22.66,4.16-22.66a53,53,0,0,0-8.59-4.17C580.52,269.3,573.23,279.46,573.23,279.46Z" style="fill:#263238;stroke:#263238;stroke-linecap:round;stroke-linejoin:round"></path><path d="M563.07,271.13s-6.51,2.86-7,6-4.17,8.07-9.64,8.07-4.95-6-8.07-6.25-8.86.78-8.86-8.6,6.51-9.89,9.12-11.72-.79-2.08,3.38-7.29,7.82-3.39,11.46-3.39,2.61-4.95,9.12-5.47,8.86,1.57,9.9,2.87,6.51-.26,10.42,2.34,4.16,4.95,6.25,7.3,6,.78,5.47,6-2.09,7.55-1.3,8.85,2.34,1.31,1.56,3.65-3.65,4.43-3.39,5.21-6,1.3-9.38-1-2.6,1.82-8.85,1.82S562.29,274.51,563.07,271.13Z" style="fill:#263238;stroke:#263238;stroke-linecap:round;stroke-linejoin:round"></path><path d="M579.48,286.23s.26-6,2.6-8.59,6.52.52,5.74,6.25-4.17,12-6.78,11.72" style="fill:#fff;stroke:#263238;stroke-linecap:round;stroke-linejoin:round"></path><path d="M567,324.26s3.64,2.35,12.24-1.3,12.76-9.64,13.28-12c.28-1.27-1-5.18-2.15-8.53C583.26,313.34,566.46,318,566.46,318Z" style="fill:#fff;stroke:#263238;stroke-linecap:round;stroke-linejoin:round"></path><polygon points="566.46 318.01 578.44 308.37 573.75 314.88 566.46 318.01" style="fill:#263238;stroke:#263238;stroke-linecap:round;stroke-linejoin:round"></polygon><path d="M551.35,305.51s6,3.64,13-3.65" style="fill:none;stroke:#263238;stroke-linecap:round;stroke-linejoin:round"></path><path d="M562.1,291.86c.42,1.3.26,2.52-.35,2.72s-1.46-.7-1.88-2-.26-2.51.35-2.71S561.68,290.56,562.1,291.86Z" style="fill:#263238"></path><path d="M550.12,291.86c.42,1.3.26,2.52-.35,2.72s-1.46-.7-1.88-2-.26-2.51.35-2.71S549.7,290.56,550.12,291.86Z" style="fill:#263238"></path><path d="M557.6,287.54s4.95-2.61,7.55.52" style="fill:none;stroke:#263238;stroke-linecap:round;stroke-linejoin:round"></path><path d="M545.1,287.27s3.64-1.3,4.17.27l2.08,4.42-1.3,11.46,6.77-1.3" style="fill:none;stroke:#263238;stroke-linecap:round;stroke-linejoin:round"></path><path d="M597.19,305.51s-16.15,22.4-23.7,26.83l5.73,9.89s15.63-14.06,18.49-20.31l2.87-6.25Z" style="fill:#F18D11;stroke:#263238;stroke-linecap:round;stroke-linejoin:round"></path><path d="M600.06,340.15l-5.21,45.32s-3.13,0-3.13,2.09a23.93,23.93,0,0,1-.52,4.42L538.59,402.4s-19-2.6-20.58-2.08-5.94,4.58-7.5,5.88-7.93,7.2-6.89,8.76,5.48-2.19,5.48-2.19-3.85,5.52-1.77,5,4.74-3.43,4.74-3.43l4.07-2.51s-4.9,6.46-3.34,6.2,4.43-2.34,4.43-2.34l1.82-1s-3.39,3.38-1.56,3.9,5.73-3.64,5.73-3.64l3.38-2.09a9.29,9.29,0,0,0,7.3.52c4.43-1.3,7.55-2.6,7.55-2.6s63,5.73,67.2,4.43,8.34-1.57,9.38-3.91,9.9-78.14,10.94-79.71-16.41-8.33-16.41-8.33" style="fill:#F18D11;stroke:#263238;stroke-linecap:round;stroke-linejoin:round"></path><path d="M563.6,397.45l-25,4.95,11.67-2.31c1.87,1.84,4,5.34,4.3,11.8,3.8.32,8.16.69,12.73,1.06C570.1,403.44,564.41,398.14,563.6,397.45Z" style="fill:#F18D11;stroke:#263238;stroke-linecap:round;stroke-linejoin:round"></path><path d="M593,392.89s13.62,4.7,18,8.77-4.54-7.2-10.49-10.18" style="fill:none;stroke:#263238;stroke-linecap:round;stroke-linejoin:round"></path><path d="M550.26,400.09l-11.67,2.31s-19-2.6-20.58-2.08-5.94,4.58-7.5,5.88-7.93,7.2-6.89,8.76,5.48-2.19,5.48-2.19-3.85,5.52-1.77,5,4.74-3.43,4.74-3.43l4.07-2.51s-4.9,6.46-3.34,6.2,4.43-2.34,4.43-2.34l1.82-1s-3.39,3.38-1.56,3.9,5.73-3.64,5.73-3.64l3.38-2.09a9.29,9.29,0,0,0,7.3.52c4.43-1.3,7.55-2.6,7.55-2.6s5.39.49,13.11,1.15C554.28,405.43,552.13,401.93,550.26,400.09Z" style="fill:#fff;stroke:#263238;stroke-linecap:round;stroke-linejoin:round"></path><path d="M519.05,414.65s4.61-4.69,6.49-5.32" style="fill:none;stroke:#263238;stroke-linecap:round;stroke-linejoin:round"></path><path d="M516.14,411.83s4.7-5.16,6.58-5.79" style="fill:none;stroke:#263238;stroke-linecap:round;stroke-linejoin:round"></path><path d="M509.1,412.77s7.36-8.45,10-9.55" style="fill:none;stroke:#263238;stroke-linecap:round;stroke-linejoin:round"></path><path d="M522,380.1l-5.94,7.46s-18.12.61-21.17,1.37-7,9.74-7,11.57,1.83,1.68,2.74.46,3.65-6.85,3.65-6.85-3,8.83-3,9.74,2,0,2,0-.15,1.83.91,2.29,3.5-1.07,3.5-1.07.61,1.22,2.44.15,6.24-8.22,7.46-9,4.72-.15,4.72-.15-3.5,1.67-4.87,4.56-1.07,3.81-.15,3.51,4-3.35,5.78-4.27,6.4-.61,7.77-1.22,13.71-7.31,13.71-7.31-.16-6.85-4.27-9.59A11,11,0,0,0,522,380.1Z" style="fill:#fff;stroke:#263238;stroke-linecap:round;stroke-linejoin:round"></path><path d="M530.26,381.77A11,11,0,0,0,522,380.1l-3.77,4.73a10.65,10.65,0,0,1,9.79,10l6.47-3.5S534.37,384.51,530.26,381.77Z" style="fill:#F18D11;stroke:#263238;stroke-linecap:round;stroke-linejoin:round"></path><path d="M516.1,387.56s4.57-.31,5.94,3" style="fill:none;stroke:#263238;stroke-linecap:round;stroke-linejoin:round"></path><line x1="493.26" y1="403.85" x2="498.89" y2="391.67" style="fill:none;stroke:#263238;stroke-linecap:round;stroke-linejoin:round"></line><line x1="497.67" y1="405.07" x2="502.85" y2="392.43" style="fill:none;stroke:#263238;stroke-linecap:round;stroke-linejoin:round"></line><line x1="494.32" y1="394.11" x2="495.85" y2="391.21" style="fill:none;stroke:#263238;stroke-linecap:round;stroke-linejoin:round"></line><path d="M542.87,395.35l1-12.36s-.61-5.94-.61-11.27,6.39-39.44,6.39-39.44" style="fill:none;stroke:#263238;stroke-linecap:round;stroke-linejoin:round"></path><path d="M558.89,372.94s-.15,8.53-.61,13.1a59.22,59.22,0,0,1-2.43,10.5" style="fill:none;stroke:#263238;stroke-linecap:round;stroke-linejoin:round"></path></g><g id="freepik--device-1--inject-139"><polygon points="328.81 392.75 276.24 391.28 246.94 421.37 306.03 423.13 328.81 392.75" style="fill:#c7c7c7;stroke:#263238;stroke-linecap:round;stroke-linejoin:round"></polygon><polygon points="276.88 396.09 290.45 396.51 277.09 413.27 262.03 412.42 276.88 396.09" style="fill:#c7c7c7;stroke:#263238;stroke-linecap:round;stroke-linejoin:round"></polygon><polygon points="317.63 396.69 295.97 396.09 280.48 417.51 301.07 418.79 317.63 396.69" style="fill:#263238;stroke:#263238;stroke-linecap:round;stroke-linejoin:round"></polygon><polygon points="306.03 423.13 319.47 368.77 341.37 347.2 328.81 392.75 306.03 423.13" style="fill:#878787;stroke:#263238;stroke-linecap:round;stroke-linejoin:round"></polygon></g><g id="freepik--character-1--inject-139"><path d="M293.86,365.33s4.67,4,3.93,5.2-1.7.64-3.08.21-6.48-3.82-6.48-3.82S292.69,364.48,293.86,365.33Z" style="fill:none;stroke:#263238;stroke-linecap:round;stroke-linejoin:round"></path><path d="M288.23,366.92s8.07,6.05,7.22,6.9-1.7.43-4.14-.21-6.26-4-6.26-4Z" style="fill:#fff;stroke:#263238;stroke-linecap:round;stroke-linejoin:round"></path><path d="M285.16,371s4.56,3.93,4.45,4.36-.63,1.27-2.33.95-5.2-3-5.2-3Z" style="fill:#fff;stroke:#263238;stroke-linecap:round;stroke-linejoin:round"></path><path d="M265.47,373.38s13.32-12.51,13.74-12.72a101.85,101.85,0,0,1,12.42-1.7c2.55,0,9.13,5.2,8.28,5.73s-5.62-.74-5.62-.74h-2.76s-5.95,6.79-11.36,10A96,96,0,0,1,266.68,380Z" style="fill:#fff;stroke:#263238;stroke-linecap:round;stroke-linejoin:round"></path><path d="M277.44,365.66a1.05,1.05,0,0,1-.11-2.1l28.8-2.66a.53.53,0,0,1,.58.47.52.52,0,0,1-.46.58l-28.69,3.71Z" style="fill:#263238"></path><path d="M277.3,367.77s10.4-4.57,12-5.1,11,1.49,10.61,2-.1,1.38-2.12,1.91-6.69.21-6.69.21-5.84,5.42-8.92,7.86-5.52,4-8.6,4.35a35.2,35.2,0,0,1-5.73.11" style="fill:#fff;stroke:#263238;stroke-linecap:round;stroke-linejoin:round"></path><polygon points="257.71 374.62 265.46 373.38 267.02 383.61 258.95 385.16 257.71 374.62" style="fill:#fff;stroke:#263238;stroke-linecap:round;stroke-linejoin:round"></polygon><path d="M170.86,323.05s11.82,2.27,16.79,5.68,16.18,27.84,18,31.87,5.92,13.09,5.92,13.09,3.41-1.86,5-.31a7,7,0,0,1,1.86,3.41s36.8-5,39.28-2.17,1.86,7.44,1.24,10.54-.31,3.1-4,4.65-40.28,11.7-50.82,13.25-9.94-8-9.94-8S197,371.52,184.54,356,168.66,334.16,167,329.12,170.86,323.05,170.86,323.05Z" style="fill:#fff;stroke:#263238;stroke-linecap:round;stroke-linejoin:round"></path><path d="M218.43,376.79s-7.16,10.88-9.55,13.53" style="fill:none;stroke:#263238;stroke-linecap:round;stroke-linejoin:round"></path><line x1="211.27" y1="375.46" x2="206.22" y2="379.97" style="fill:none;stroke:#263238;stroke-linecap:round;stroke-linejoin:round"></line><path d="M116.94,354.63l-26.89,7.2a12.53,12.53,0,0,0-6.25,3.91h0a12.61,12.61,0,0,0-2.52,12l23.63,76.42,32.59-17Z" style="fill:#263238;stroke:#263238;stroke-linecap:round;stroke-linejoin:round"></path><path d="M182.18,333.26s1.65,3.32,11,12.7c8.7,8.7,12,19.22,10,31.49-1.59,9.74-1.44,20-3.48,29.65l-62.2,30-21.86-96.43s18.5-11.32,30.37-15.19,21-3.31,24.85-2.48,6.62,1.65,6.62,1.65" style="fill:#fff;stroke:#263238;stroke-linecap:round;stroke-linejoin:round"></path><path d="M177.72,351.67s13.34,13,14.27,20.47-.31,26-.31,26" style="fill:none;stroke:#263238;stroke-linecap:round;stroke-linejoin:round"></path><path d="M174.45,347.9l1.65-17.12L167,329.12a11.32,11.32,0,0,0-1.1,9.39C167.54,344,174.45,347.9,174.45,347.9Z" style="fill:#fff;stroke:#263238;stroke-linecap:round;stroke-linejoin:round"></path><polygon points="176.1 330.78 183.84 342.1 175.28 340.99 176.1 330.78" style="fill:#fff;stroke:#263238;stroke-linecap:round;stroke-linejoin:round"></polygon><path d="M181.9,262s2.49,5,2.76,8.83-1.1,5.8,1.11,8.29,10.21,1.93,8.56,5.52a20.9,20.9,0,0,1-4.42,6.07s-1.66,8.84-2.49,14.64-.27,6.35-3.31,6.9-8.28-.28-8.28-.28a43.51,43.51,0,0,0-5.8,14.08,34.79,34.79,0,0,0-.28,13.81l-15.18-8.28s-5.8,1.93-8.84-9.94,5.8-46.94,11.32-54.12S181.9,262,181.9,262Z" style="fill:#fff;stroke:#263238;stroke-linecap:round;stroke-linejoin:round"></path><path d="M158.71,277.77s1.93,8.28.83,9.93-5.52-4.14-5.52-4.14S156.78,274.18,158.71,277.77Z" style="fill:#263238;stroke:#263238;stroke-linecap:round;stroke-linejoin:round"></path><polygon points="154.57 331.61 168.1 334.37 174.45 347.89 167.54 344.03 164.23 355.9 142.97 332.71 154.57 331.61" style="fill:#fff;stroke:#263238;stroke-linecap:round;stroke-linejoin:round"></polygon><polygon points="167.54 344.03 168.1 334.37 174.45 347.89 167.54 344.03" style="fill:#fff;stroke:#263238;stroke-linecap:round;stroke-linejoin:round"></polygon><path d="M150.77,300.08c2,3.74,6.21,1.24,6.21,1.24l11.12,6.82-8.84-3.32-12.42,9.67S147.05,292.94,150.77,300.08Z" style="fill:#263238;stroke:#263238;stroke-linecap:round;stroke-linejoin:round"></path><path d="M186.6,296.26s-5.8,1.66-7.46-1.1" style="fill:none;stroke:#263238;stroke-linecap:round;stroke-linejoin:round"></path><path d="M182.12,278.61c.51,1.67.33,3.21-.4,3.44s-1.73-1-2.24-2.64-.33-3.22.4-3.44S181.61,276.93,182.12,278.61Z" style="fill:#263238"></path><path d="M176.38,273.9s2.48-3.87,6.07-1.66" style="fill:none;stroke:#263238;stroke-linecap:round;stroke-linejoin:round"></path><path d="M185.49,254.3s.28,2.21-3.59,7.73-19.05,12.42-23.19,15.74-9.39,31.47-8.56,38.93,1.66,10.21,5.8,10.21a9.88,9.88,0,0,0,6.9-3.31s-1.38,12.42-7.73,14.91-14.36-2.49-21.26-1.93-13.53,6.62-16.84,9.11-4.7,4.69-11.32.82-3.87-9.66-3.87-9.66,5.8,3,9.11-4.14,5.8-1.93,2.76-19-3.86-27.06,6.36-45.83,22.64-20.71,22.64-20.71S157.33,245.19,185.49,254.3Z" style="fill:#263238;stroke:#263238;stroke-linecap:round;stroke-linejoin:round"></path><path d="M220.56,412.78S246.23,402,248.17,402s19.05,8.28,19.05,8.28l1.1,1.94s1.11.55.28,2.21-6.35,1.38-6.35,1.38,4.42.82,2.48,1.93-16.56,0-16.56,0a46.14,46.14,0,0,1-12.7,4.69c-6.35,1.11-16.29-.55-16.29-.55Z" style="fill:#fff;stroke:#263238;stroke-linecap:round;stroke-linejoin:round"></path><line x1="268.32" y1="412.23" x2="251.4" y2="404.87" style="fill:none;stroke:#263238;stroke-linecap:round;stroke-linejoin:round"></line><line x1="268.6" y1="414.44" x2="250.74" y2="408.36" style="fill:none;stroke:#263238;stroke-linecap:round;stroke-linejoin:round"></line><path d="M262.25,415.82s-7-1.79-8.21-2.08a13.31,13.31,0,0,0-3.78-.18" style="fill:none;stroke:#263238;stroke-linecap:round;stroke-linejoin:round"></path><polygon points="211.17 411.95 220.56 412.78 219.73 423.82 210.62 424.38 211.17 411.95" style="fill:#fff;stroke:#263238;stroke-linecap:round;stroke-linejoin:round"></polygon><path d="M152.36,341s-11.05-11.32-17.67-11.87-21.26,3.31-21.26,20.71,8.56,45.28,9.66,63.23,9.11,28.16,11.6,27.88S167.82,439,186,433.49s23.2-5.8,24.58-9.11,1.93-9.39.55-12.43-54.12-2.21-55.22-2.21-8.56-51.35-8.56-51.35" style="fill:#fff;stroke:#263238;stroke-linecap:round;stroke-linejoin:round"></path><path d="M153.19,410s-11.88,3.59-17.67,10.77" style="fill:none;stroke:#263238;stroke-linecap:round;stroke-linejoin:round"></path><path d="M151.81,407.53s-11.88,1.94-16.85,5.53" style="fill:none;stroke:#263238;stroke-linecap:round;stroke-linejoin:round"></path></g><g id="freepik--mug-2--inject-139"><path d="M565.76,424.05s7.44-1.76,7.42,3.54-1.89,12.73-4.66,14.15-7.49-1.42-7.49-1.42l-.06-3.18s6.15,2.83,7.36-1.41,1.66-8.14-4.57-7.08" style="fill:#F18D11;stroke:#263238;stroke-linecap:round;stroke-linejoin:round"></path><path d="M566.78,419.28l-2.39,28.29c0,2.22-5.58,4-12.47,4s-12.46-1.79-12.46-4l-2.39-28.29Z" style="fill:#F18D11;stroke:#263238;stroke-linecap:round;stroke-linejoin:round"></path><ellipse cx="551.92" cy="419.28" rx="14.86" ry="4.77" style="fill:#fff;stroke:#263238;stroke-linecap:round;stroke-linejoin:round"></ellipse><path d="M546.92,422.46a39.12,39.12,0,0,0,5,.31c4.91,0,9.16-.83,11.3-2" style="fill:#fff;stroke:#263238;stroke-linecap:round;stroke-linejoin:round"></path><path d="M540.17,420.45a10.1,10.1,0,0,0,3,1.29" style="fill:#fff;stroke:#263238;stroke-linecap:round;stroke-linejoin:round"></path></g><g id="freepik--mug-1--inject-139"><path d="M213,430.1s-7.21-1.78-7.63,3.59.81,12.87,3.43,14.3,7.53-1.44,7.53-1.44l.32-3.22s-6.31,2.87-7.17-1.42-1-8.23,5.11-7.16" style="fill:#F18D11;stroke:#263238;stroke-linecap:round;stroke-linejoin:round"></path><path d="M211.21,425.43l2.39,28.29c0,2.22,5.58,4,12.46,4s12.47-1.79,12.47-4l2.39-28.29Z" style="fill:#F18D11;stroke:#263238;stroke-linecap:round;stroke-linejoin:round"></path><path d="M240.92,425.43c0,2.64-6.65,4.77-14.86,4.77s-14.85-2.13-14.85-4.77,6.65-4.78,14.85-4.78S240.92,422.79,240.92,425.43Z" style="fill:#fff;stroke:#263238;stroke-linecap:round;stroke-linejoin:round"></path><path d="M231.06,428.61a38.88,38.88,0,0,1-5,.31c-4.9,0-9.16-.83-11.29-2" style="fill:#fff;stroke:#263238;stroke-linecap:round;stroke-linejoin:round"></path><path d="M237.82,426.6a10.22,10.22,0,0,1-3,1.29" style="fill:#fff;stroke:#263238;stroke-linecap:round;stroke-linejoin:round"></path></g></svg>